<svg version="1.2" xmlns="http://www.w3.org/2000/svg" viewBox="0 0 1486 1057" width="1486" height="1057">
	<title>EFERT_Annual_Report_2023_Final-1-pdf-svg</title>

	<style>
		.s0 { fill: #c0d786 } 
		.s1 { fill: #6ebd8f } 
		.s2 { fill: #80ba27 } 
		.s3 { fill: #006935 } 
		.s4 { fill: #00a867 } 
		.s5 { fill: #74af27 } 
	</style>
	<g id="Clip-Path: Page 1" clip-path="url(#cp1)">
		<g id="Page 1">
			<path id="Path 13" class="s0" d="m794.5 123c0 0 279.4 189.4 489.9 342.4 118.6-3.8 200.9 1.9 200.9 1.9-155-114.7-329.1-248.7-654.4-466.7-467 88-755.9 300.3-755.9 300.3q42.1 24.9 80.4 49.7c130.1-72.7 359.7-181.7 639.1-227.6z"/>
			<path id="Path 14" class="s1" d="m239.6 411.9q-38.3-30.6-84.2-61.3c-74.7 42.1-116.8 72.7-116.8 72.7q38.3 28.7 72.7 55.5c36.4-21 80.4-44 128.3-66.9zm1044.8 53.5c-57.4 1.9-122.5 5.8-191.4 13.4 51.7 36.4 103.4 74.6 153.1 109.1 118.7-5.8 202.9 0 202.9 0-42.1-32.6-99.5-76.6-164.6-122.5z"/>
			<path id="Path 15" class="s2" d="m756.2 243.5c0 0 164.6 114.8 336.8 235.3 68.9-7.6 134-11.5 191.4-13.4-210.5-153-489.9-342.4-489.9-342.4-279.4 45.9-509 154.9-639.1 227.6q45.9 30.7 84.2 61.3c143.5-68.9 331-143.5 516.6-168.4z"/>
			<path id="Path 16" class="s3" d="m429 878.6c0 0 5.7-147.3-317.7-399.8-68.9 38.3-111 65.1-111 65.1 367.5 304.1 375.1 512.6 375.1 512.6 225.8-355.8 1035.3-346.2 1035.3-346.2-42.1-32.5-99.5-76.5-164.6-122.4-243 9.5-637.2 63.1-817.1 290.7z"/>
			<path id="Path 17" class="s4" d="m486.4 693.1c0 0-47.8-128.2-246.8-281.2-47.9 22.9-91.9 45.9-128.3 66.9 323.4 252.5 317.7 399.8 317.7 399.8 179.9-227.6 574.1-281.2 817.1-290.7-49.7-34.5-101.4-72.7-153.1-109.1-208.6 23-453.5 80.4-606.6 214.3z"/>
			<path id="Path 18" class="s5" d="m239.6 411.9c199 153 246.8 281.2 246.8 281.2 153.1-133.9 398-191.3 606.6-214.3-172.2-120.5-336.8-235.3-336.8-235.3-185.6 24.9-373.1 99.5-516.6 168.4z"/>
		</g>
	</g>
</svg>